HIERARCHY
ROOT hip
{
  OFFSET 0 0 0
  CHANNELS 6 Xposition Yposition Zposition Zrotation Yrotation Xrotation
  JOINT abdomen
  {
    OFFSET 0 20.6881 -0.73152
    CHANNELS 3 Zrotation Xrotation Yrotation
    JOINT chest
    {
      OFFSET 0 11.7043 -0.48768
      CHANNELS 3 Zrotation Xrotation Yrotation
      JOINT neck
      {
        OFFSET 0 22.1894 -2.19456
        CHANNELS 3 Zrotation Xrotation Yrotation
        JOINT head
        {
          OFFSET -0.24384 7.07133 1.2192
          CHANNELS 3 Zrotation Xrotation Yrotation
          JOINT leftEye
          {
            OFFSET 4.14528 8.04674 8.04672
            CHANNELS 3 Zrotation Xrotation Yrotation
            End Site
            {
              OFFSET 1 0 0
            }
          }
          JOINT rightEye
          {
            OFFSET -3.6576 8.04674 8.04672
            CHANNELS 3 Zrotation Xrotation Yrotation
            End Site
            {
              OFFSET 1 0 0
            }
          }
        }
      }
      JOINT rCollar
      {
        OFFSET -2.68224 19.2634 -4.8768
        CHANNELS 3 Zrotation Xrotation Yrotation
        JOINT rShldr
        {
          OFFSET -8.77824 -1.95073 1.46304
          CHANNELS 3 Zrotation Xrotation Yrotation
          JOINT rForeArm
          {
            OFFSET -28.1742 -1.7115 0.48768
            CHANNELS 3 Zrotation Xrotation Yrotation
            JOINT rHand
            {
              OFFSET -22.5879 0.773209 7.07136
              CHANNELS 3 Zrotation Xrotation Yrotation
              JOINT rThumb1
              {
                OFFSET -1.2192 -0.487915 3.41376
                CHANNELS 3 Zrotation Xrotation Yrotation
                JOINT rThumb2
                {
                  OFFSET -3.37035 -0.52449 3.41376
                  CHANNELS 3 Zrotation Xrotation Yrotation
                  End Site
                  {
                    OFFSET -1.78271 -1.18214 1.43049
                  }
                }
              }
              JOINT rIndex1
              {
                OFFSET -7.75947 0.938293 5.60832
                CHANNELS 3 Zrotation Xrotation Yrotation
                JOINT rIndex2
                {
                  OFFSET -2.54057 -0.884171 1.56538
                  CHANNELS 3 Zrotation Xrotation Yrotation
                  End Site
                  {
                    OFFSET -1.62519 -0.234802 1.16502
                  }
                }
              }
              JOINT rMid1
              {
                OFFSET -8.24714 1.18213 3.41376
                CHANNELS 3 Zrotation Xrotation Yrotation
                JOINT rMid2
                {
                  OFFSET -3.10165 -0.590103 1.0647
                  CHANNELS 3 Zrotation Xrotation Yrotation
                  End Site
                  {
                    OFFSET -2.48547 -0.328903 0.83742
                  }
                }
              }
              JOINT rRing1
              {
                OFFSET -8.82822 0.546677 1.51678
                CHANNELS 3 Zrotation Xrotation Yrotation
                JOINT rRing2
                {
                  OFFSET -2.60934 -0.819778 -0.0198488
                  CHANNELS 3 Zrotation Xrotation Yrotation
                  End Site
                  {
                    OFFSET -2.33842 -0.294052 0.168128
                  }
                }
              }
              JOINT rPinky1
              {
                OFFSET -8.27202 -0.0477905 -0.4584
                CHANNELS 3 Zrotation Xrotation Yrotation
                JOINT rPinky2
                {
                  OFFSET -1.82734 -0.647385 -0.700984
                  CHANNELS 3 Zrotation Xrotation Yrotation
                  End Site
                  {
                    OFFSET -1.69225 -0.51767 -0.607171
                  }
                }
              }
            }
          }
        }
      }
      JOINT lCollar
      {
        OFFSET 2.68224 19.2634 -4.8768
        CHANNELS 3 Zrotation Xrotation Yrotation
        JOINT lShldr
        {
          OFFSET 8.77824 -1.95073 1.46304
          CHANNELS 3 Zrotation Xrotation Yrotation
          JOINT lForeArm
          {
            OFFSET 28.1742 -1.7115 0.48768
            CHANNELS 3 Zrotation Xrotation Yrotation
            JOINT lHand
            {
              OFFSET 22.5879 0.773209 7.07136
              CHANNELS 3 Zrotation Xrotation Yrotation
              JOINT lThumb1
              {
                OFFSET 1.2192 -0.487915 3.41376
                CHANNELS 3 Zrotation Xrotation Yrotation
                JOINT lThumb2
                {
                  OFFSET 3.37035 -0.52449 3.41376
                  CHANNELS 3 Zrotation Xrotation Yrotation
                  End Site
                  {
                    OFFSET 1.78271 -1.18214 1.43049
                  }
                }
              }
              JOINT lIndex1
              {
                OFFSET 7.75947 0.938293 5.60832
                CHANNELS 3 Zrotation Xrotation Yrotation
                JOINT lIndex2
                {
                  OFFSET 2.54057 -0.884171 1.56538
                  CHANNELS 3 Zrotation Xrotation Yrotation
                  End Site
                  {
                    OFFSET 1.62519 -0.234802 1.16502
                  }
                }
              }
              JOINT lMid1
              {
                OFFSET 8.24714 1.18213 3.41376
                CHANNELS 3 Zrotation Xrotation Yrotation
                JOINT lMid2
                {
                  OFFSET 3.10165 -0.590103 1.0647
                  CHANNELS 3 Zrotation Xrotation Yrotation
                  End Site
                  {
                    OFFSET 2.48547 -0.328903 0.83742
                  }
                }
              }
              JOINT lRing1
              {
                OFFSET 8.82822 0.546677 1.51678
                CHANNELS 3 Zrotation Xrotation Yrotation
                JOINT lRing2
                {
                  OFFSET 2.60934 -0.819778 -0.0198488
                  CHANNELS 3 Zrotation Xrotation Yrotation
                  End Site
                  {
                    OFFSET 2.33842 -0.294052 0.168128
                  }
                }
              }
              JOINT lPinky1
              {
                OFFSET 8.27202 -0.0477905 -0.4584
                CHANNELS 3 Zrotation Xrotation Yrotation
                JOINT lPinky2
                {
                  OFFSET 1.82734 -0.647385 -0.700984
                  CHANNELS 3 Zrotation Xrotation Yrotation
                  End Site
                  {
                    OFFSET 1.69225 -0.51767 -0.607171
                  }
                }
              }
            }
          }
        }
      }
    }
  }
  JOINT rButtock
  {
    OFFSET -8.77824 4.35084 1.2192
    CHANNELS 3 Zrotation Xrotation Yrotation
    JOINT rThigh
    {
      OFFSET 0 -1.70687 -2.19456
      CHANNELS 3 Zrotation Xrotation Yrotation
      JOINT rShin
      {
        OFFSET 0 -36.8199 0.73152
        CHANNELS 3 Zrotation Xrotation Yrotation
        JOINT rFoot
        {
          OFFSET 0.73152 -45.1104 -5.12064
          CHANNELS 3 Zrotation Xrotation Yrotation
          End Site
          {
            OFFSET -1.1221 -3.69964 12.103
          }
        }
      }
    }
  }
  JOINT lButtock
  {
    OFFSET 8.77824 4.35084 1.2192
    CHANNELS 3 Zrotation Xrotation Yrotation
    JOINT lThigh
    {
      OFFSET 0 -1.70687 -2.19456
      CHANNELS 3 Zrotation Xrotation Yrotation
      JOINT lShin
      {
        OFFSET 0 -36.8199 0.73152
        CHANNELS 3 Zrotation Xrotation Yrotation
        JOINT lFoot
        {
          OFFSET -0.73152 -45.1104 -5.12064
          CHANNELS 3 Zrotation Xrotation Yrotation
          End Site
          {
            OFFSET 1.1221 -3.69964 12.103
          }
        }
      }
    }
  }
}
MOTION
Frames:	8
Frame Time:	0.00833333
57.4922 114.793 50.7617 -187.73 -58.6229 -140.355 -2.10634 -36.7065 3.35296 1.62318 9.72271 0.402799 -3.71478 15.8079 0.0856964 10.0835 -19.8342 1.54334 -0.0 0.0 0.0 -0.0 0.0 0.0 -4.58648e-13 2.66825e-12 -1.10957e-12 47.65 46.5525 23.7279 -22.3637 -16.3094 44.8037 -0.0202424 4.12004 0.579984 3.84681e-09 4.91916e-10 3.81749e-09 6.65787e-09 8.55535e-10 6.59683e-09 3.84681e-09 4.9192e-10 3.81749e-09 7.73091 5.47488 0.417314 3.84681e-09 4.91917e-10 3.8175e-09 2.90554 0.965183 0.102902 3.84681e-09 4.91913e-10 3.8175e-09 10.2786 0.731801 0.0259123 3.8468e-09 4.91915e-10 3.8175e-09 2.22167 -0.733487 -0.20892 -4.58751e-13 2.66827e-12 -1.10977e-12 -50.8389 61.6505 -23.3647 23.7121 -18.5782 -48.6872 0.0254703 4.63508 -0.652758 6.32421e-10 -5.17987e-09 3.8269e-09 1.10209e-09 -8.94959e-09 6.63251e-09 6.32419e-10 -5.17987e-09 3.82692e-09 -7.73091 5.47488 -0.417314 6.32421e-10 -5.17987e-09 3.82691e-09 -2.90554 0.965183 -0.102902 6.3241e-10 -5.17987e-09 3.82691e-09 -10.2786 0.731801 -0.0259123 6.32422e-10 -5.17987e-09 3.82691e-09 -2.22167 -0.733487 0.20892 -2.03217e-16 0.0 -3.88251e-19 -0.523168 -33.1318 -9.38867 -0.0882545 14.3621 -0.33041 10.1765 30.5518 -22.0285 2.03217e-16 0.0 3.88251e-19 -3.75721 -46.6006 -6.24976 0.0762471 14.4073 0.067827 -2.58465 34.8148 5.58894
57.3024 116.561 50.4939 -188.083 -60.5352 -141.649 -1.97624 -34.5834 4.01773 1.74682 9.45241 0.647398 -3.87024 14.9157 0.0683595 10.1515 -19.5644 1.60645 -0.0 0.0 0.0 -0.0 0.0 0.0 -4.77706e-13 2.68893e-12 -6.14009e-13 50.0768 45.9376 22.0419 -22.2318 -16.1052 44.4416 -0.0118717 3.27467 0.460607 3.45394e-09 2.83897e-10 3.24302e-09 5.97412e-09 4.94463e-10 5.60275e-09 3.45395e-09 2.83901e-10 3.24301e-09 7.73091 5.47488 0.417314 3.45394e-09 2.83896e-10 3.24302e-09 2.90554 0.965183 0.102902 3.45394e-09 2.83894e-10 3.24302e-09 10.2786 0.731801 0.0259123 3.45393e-09 2.83896e-10 3.24303e-09 2.22167 -0.733487 -0.20892 -4.77827e-13 2.68894e-12 -6.14139e-13 -50.4422 61.0391 -25.851 23.117 -17.5482 -46.8616 0.0348355 5.43343 -0.765782 1.48783e-09 -1.14315e-09 2.23746e-09 2.57622e-09 -1.97631e-09 3.87592e-09 1.48783e-09 -1.14315e-09 2.23747e-09 -7.73091 5.47488 -0.417314 1.48783e-09 -1.14315e-09 2.23746e-09 -2.90554 0.965183 -0.102902 1.48783e-09 -1.14315e-09 2.23746e-09 -10.2786 0.731801 -0.0259123 1.48784e-09 -1.14315e-09 2.23746e-09 -2.22167 -0.733487 0.20892 -2.03217e-16 0.0 -3.88251e-19 -0.128329 -32.6703 -8.99138 -0.107093 18.0323 -0.252866 8.59831 31.4611 -18.5047 2.03217e-16 0.0 3.88251e-19 -3.57438 -45.0732 -6.17678 0.0866844 15.6722 0.0799966 -3.04719 34.8276 6.48266
57.1589 118.214 50.1978 -188.275 -62.6351 -142.92 -1.98939 -32.3164 4.61137 1.91505 9.20693 0.887231 -4.01464 14.0749 0.0532783 10.211 -19.3173 1.6683 -0.0 0.0 0.0 -0.0 0.0 0.0 -4.73756e-13 2.54468e-12 -2.84946e-14 52.3985 45.1856 20.4934 -22.1182 -15.9338 44.12 -0.00531346 2.22704 0.313064 2.80493e-09 5.85434e-11 2.36608e-09 4.84765e-09 1.0335e-10 4.08578e-09 2.80494e-09 5.85463e-11 2.36606e-09 7.73091 5.47488 0.417314 2.80493e-09 5.85412e-11 2.36608e-09 2.90554 0.965183 0.102902 2.80494e-09 5.85403e-11 2.36608e-09 10.2786 0.731801 0.0259123 2.80492e-09 5.85417e-11 2.36609e-09 2.22167 -0.733487 -0.20892 -4.73895e-13 2.54468e-12 -2.85614e-14 -50.4901 60.2154 -27.8396 22.4969 -16.5349 -45.0911 0.0464272 6.20814 -0.875849 2.42464e-09 3.34467e-09 2.60668e-10 4.19044e-09 5.77602e-09 4.48103e-10 2.42464e-09 3.34467e-09 2.60672e-10 -7.73091 5.47488 -0.417314 2.42464e-09 3.34468e-09 2.60662e-10 -2.90554 0.965183 -0.102902 2.42463e-09 3.34467e-09 2.60666e-10 -10.2786 0.731801 -0.0259123 2.42464e-09 3.34468e-09 2.60661e-10 -2.22167 -0.733487 0.20892 -2.03217e-16 0.0 -3.88251e-19 0.392847 -32.0964 -7.79131 -0.134805 21.3587 -0.16256 6.98796 31.5165 -15.4119 2.03217e-16 0.0 3.88251e-19 -3.3726 -43.4185 -6.25118 0.0960339 16.924 0.0884859 -3.41592 34.8538 7.19017
57.0124 119.787 49.9259 -188.606 -64.9536 -143.77 -2.04807 -30.6426 4.81212 2.06119 9.13017 1.00281 -4.0939 13.5581 0.0290084 10.2469 -19.1577 1.67814 -0.0 0.0 0.0 -0.0 0.0 0.0 -4.5471e-13 2.29219e-12 3.59403e-13 54.6183 44.4623 19.055 -21.984 -15.7335 43.7464 -0.00197615 1.26922 0.178407 2.33505e-09 5.8131e-11 1.48261e-09 4.03346e-09 1.01402e-10 2.55861e-09 2.33507e-09 5.81334e-11 1.48259e-09 7.73091 5.47488 0.417314 2.33505e-09 5.81279e-11 1.48262e-09 2.90554 0.965183 0.102902 2.33506e-09 5.81281e-11 1.48262e-09 10.2786 0.731801 0.0259123 2.33505e-09 5.81294e-11 1.48263e-09 2.22167 -0.733487 -0.20892 -4.54859e-13 2.29219e-12 3.59353e-13 -51.2183 59.2439 -28.9305 21.8901 -15.5932 -43.4937 0.0575835 6.83154 -0.964731 3.00433e-09 5.84178e-09 -8.53982e-10 5.18972e-09 1.00909e-08 -1.48691e-09 3.00433e-09 5.84179e-09 -8.53982e-10 -7.73091 5.47488 -0.417314 3.00432e-09 5.84179e-09 -8.53992e-10 -2.90554 0.965183 -0.102902 3.00432e-09 5.84179e-09 -8.53986e-10 -10.2786 0.731801 -0.0259123 3.00433e-09 5.84179e-09 -8.53992e-10 -2.22167 -0.733487 0.20892 -2.03217e-16 0.0 -3.88251e-19 0.932942 -31.5663 -6.53675 -0.158981 23.7351 -0.0892704 5.70696 31.7814 -12.787 2.03217e-16 0.0 3.88251e-19 -3.24082 -42.1269 -6.5245 0.10309 18.041 0.0837284 -3.5198 34.8225 7.4022
56.8553 121.285 49.6587 -188.895 -67.5723 -144.421 -2.07076 -29.7345 4.54421 2.17445 9.28411 0.958518 -4.07303 13.502 -0.00662132 10.2455 -19.1215 1.61669 -0.0 0.0 0.0 -0.0 0.0 0.0 -4.14605e-13 1.83249e-12 4.70548e-13 56.8047 43.7909 17.6896 -21.8253 -15.4969 43.3214 0.000769677 0.358985 0.0505003 2.15395e-09 4.70567e-10 4.45857e-10 3.72285e-09 8.13516e-10 7.6828e-10 2.15396e-09 4.7057e-10 4.45838e-10 7.73091 5.47488 0.417314 2.15395e-09 4.70565e-10 4.4586e-10 2.90554 0.965183 0.102902 2.15396e-09 4.70566e-10 4.45863e-10 10.2786 0.731801 0.0259123 2.15395e-09 4.70567e-10 4.45873e-10 2.22167 -0.733487 -0.20892 -4.14752e-13 1.83249e-12 4.70437e-13 -52.8323 58.0915 -28.8762 21.3416 -14.7888 -42.0997 0.0665501 7.30569 -1.03247 3.09993e-09 5.3225e-09 -6.37824e-10 5.35586e-09 9.19782e-09 -1.11866e-09 3.09993e-09 5.3225e-09 -6.37823e-10 -7.73091 5.47488 -0.417314 3.09992e-09 5.3225e-09 -6.37832e-10 -2.90554 0.965183 -0.102902 3.09992e-09 5.3225e-09 -6.37827e-10 -10.2786 0.731801 -0.0259123 3.09993e-09 5.3225e-09 -6.37833e-10 -2.22167 -0.733487 0.20892 -2.03217e-16 0.0 -3.88251e-19 1.54875 -31.1009 -5.22999 -0.16759 24.9611 -0.0365243 4.71578 32.7183 -10.4462 2.03217e-16 0.0 3.88251e-19 -3.16328 -41.3061 -7.03585 0.108325 19.0437 0.0563241 -3.20271 34.6984 6.82787
56.6848 122.746 49.4095 -189.612 -70.4477 -144.386 -2.09185 -29.205 3.99262 2.28823 9.58416 0.819333 -3.98703 13.74 -0.0479793 10.2181 -19.1677 1.51293 -0.0 0.0 0.0 -0.0 0.0 0.0 -3.51913e-13 1.17338e-12 4.5913e-13 58.9402 43.0979 16.4171 -21.66 -15.2535 42.8862 0.00134664 -0.619387 -0.0869873 2.03162e-09 1.12554e-09 -8.26797e-10 3.51649e-09 1.94508e-09 -1.42876e-09 2.03163e-09 1.12554e-09 -8.26812e-10 7.73091 5.47488 0.417314 2.03162e-09 1.12554e-09 -8.26798e-10 2.90554 0.965183 0.102902 2.03163e-09 1.12554e-09 -8.26792e-10 10.2786 0.731801 0.0259123 2.03162e-09 1.12554e-09 -8.26786e-10 2.22167 -0.733487 -0.20892 -3.5205e-13 1.17338e-12 4.58907e-13 -55.0324 56.755 -28.0627 20.8494 -14.1103 -40.8288 0.0736624 7.68669 -1.08695 2.94866e-09 3.21395e-09 1.97595e-10 5.09717e-09 5.56096e-09 3.20915e-10 2.94865e-09 3.21396e-09 1.97599e-10 -7.73091 5.47488 -0.417314 2.94865e-09 3.21396e-09 1.97591e-10 -2.90554 0.965183 -0.102902 2.94865e-09 3.21395e-09 1.97594e-10 -10.2786 0.731801 -0.0259123 2.94866e-09 3.21396e-09 1.97586e-10 -2.22167 -0.733487 0.20892 -2.03217e-16 0.0 -3.88251e-19 2.24586 -30.6041 -3.54882 -0.164205 25.3729 0.00861606 3.87879 33.7399 -8.44748 2.03217e-16 0.0 3.88251e-19 -3.09164 -40.6993 -7.73768 0.11346 19.9793 0.013212 -2.60003 34.5189 5.7055
56.4934 124.184 49.2063 -191.677 -73.3885 -142.813 -2.1518 -28.9502 3.23963 2.40082 9.95449 0.616782 -3.88707 14.0894 -0.0947464 10.1881 -19.2464 1.38874 -0.0 0.0 0.0 -0.0 0.0 0.0 -2.81195e-13 5.31688e-13 3.87562e-13 60.9196 42.4056 15.2789 -21.4789 -14.9922 42.4104 -0.00127103 -1.48401 -0.20857 1.89387e-09 1.72799e-09 -1.94316e-09 3.28348e-09 2.98603e-09 -3.35568e-09 1.89387e-09 1.72799e-09 -1.94317e-09 7.73091 5.47488 0.417314 1.89387e-09 1.72799e-09 -1.94317e-09 2.90554 0.965183 0.102902 1.89387e-09 1.72799e-09 -1.94316e-09 10.2786 0.731801 0.0259123 1.89386e-09 1.72799e-09 -1.94316e-09 2.22167 -0.733487 -0.20892 -2.81324e-13 5.31688e-13 3.87226e-13 -57.2942 55.3467 -27.0381 20.3857 -13.503 -39.6335 0.0780359 7.92791 -1.12147 2.65829e-09 7.536e-10 1.13143e-09 4.59837e-09 1.31581e-09 1.93222e-09 2.65828e-09 7.53601e-10 1.13144e-09 -7.73091 5.47488 -0.417314 2.65828e-09 7.53599e-10 1.13143e-09 -2.90554 0.965183 -0.102902 2.65828e-09 7.53599e-10 1.13143e-09 -10.2786 0.731801 -0.0259123 2.65829e-09 7.53603e-10 1.13142e-09 -2.22167 -0.733487 0.20892 -2.03217e-16 0.0 -3.88251e-19 2.88708 -30.0869 -1.73051 -0.153528 25.1694 0.0384094 3.30777 34.3672 -7.13515 2.03217e-16 0.0 3.88251e-19 -3.07572 -40.2502 -8.55484 0.118678 20.7665 -0.0305258 -1.97088 34.3296 4.51615
56.2816 125.584 49.086 -195.669 -76.3077 -139.277 -2.29538 -28.867 2.36613 2.50935 10.3193 0.382542 -3.82485 14.368 -0.146482 10.1795 -19.3071 1.26611 -0.0 0.0 0.0 -0.0 0.0 0.0 -2.17015e-13 1.2424e-13 3.18254e-13 62.6424 41.7379 14.3126 -21.2716 -14.7005 41.8643 -0.00517214 -2.05301 -0.288657 1.66649e-09 1.98286e-09 -2.51106e-09 2.89291e-09 3.42633e-09 -4.33568e-09 1.6665e-09 1.98286e-09 -2.51107e-09 7.73091 5.47488 0.417314 1.66649e-09 1.98286e-09 -2.51107e-09 2.90554 0.965183 0.102902 1.66649e-09 1.98286e-09 -2.51106e-09 10.2786 0.731801 0.0259123 1.66649e-09 1.98286e-09 -2.51106e-09 2.22167 -0.733487 -0.20892 -2.17145e-13 1.2424e-13 3.17857e-13 -59.188 53.9959 -26.2635 19.9138 -12.9038 -38.4712 0.0787991 7.98273 -1.12929 2.33658e-09 -8.21121e-10 1.64284e-09 4.04418e-09 -1.40212e-09 2.81568e-09 2.33658e-09 -8.21121e-10 1.64285e-09 -7.73091 5.47488 -0.417314 2.33658e-09 -8.21124e-10 1.64284e-09 -2.90554 0.965183 -0.102902 2.33658e-09 -8.21124e-10 1.64284e-09 -10.2786 0.731801 -0.0259123 2.33659e-09 -8.21121e-10 1.64283e-09 -2.22167 -0.733487 0.20892 -2.03217e-16 0.0 -3.88251e-19 3.348 -29.5729 -0.00613964 -0.141794 24.5495 0.0457445 3.16557 34.1243 -6.88084 2.03217e-16 0.0 3.88251e-19 -3.16771 -39.9034 -9.41416 0.122957 21.3239 -0.0593827 -1.56146 34.1928 3.7342
